<svg xmlns="http://www.w3.org/2000/svg" viewBox="0 0 2831.7 637.67"><defs><style>.cls-1{fill:#fff;}</style></defs><title>Element 1</title><g id="Ebene_2" data-name="Ebene 2"><g id="Ebene_1-2" data-name="Ebene 1"><g id="Ebene_1-2-2" data-name="Ebene 1-2"><path class="cls-1" d="M1050.48.15c175.85,0,319.9,143.3,318.2,321.94C1367,496.46,1225.48,637.61,1050,637.61c-177.32,0-320.51-145-318.43-322.72C733.62,142.3,874.16-.06,1050.48.15ZM1080,258.59l-1.56.6c-3.8-3.55-8.12-6.68-11.31-10.71-16.27-20.55-21.14-44-16.48-69.53,2.81-15.39,9.33-29.4,16.51-43.15,1.16-2.2,2-4.55,3.5-7.9-33.74,8.76-58.84,27.45-78.67,53.78-20.34,27-24.76,57.73-21.07,90.48C955,253.92,935.41,241.23,913,232.45c14.11,22.76,16.37,47,10.53,72.29-3.5,15.14-8.21,29.89-18.57,42-2,2.39-4.67,4.29-7.43,6.77-.88-9.7-1.52-18.31-2.49-26.88s-4.92-16.18-10-23.09a51.43,51.43,0,0,0-20.54-17.06c7.48,14.93,3.18,26.46-5.15,37.87a64.09,64.09,0,0,0-9.5,19.65c-7.93,27.22-8.5,54.79-1,82.23C855.22,449.59,867,469.4,888.61,482a16.78,16.78,0,0,0,7.93,2.31c14.82.21,29.66.11,44.49.08,1.37,0,2.75-.26,4.85-.47-1.62-2.12-2.69-3.56-3.8-5-17.94-22.95-19.63-59.11-3.78-82.52,6-8.85,13.9-14.91,24.43-16.6,0,5.39-.29,10.54.06,15.64.82,12.24,3,24.15,10.56,34.31,7,9.39,12.94,10.8,21.68,3.21a93.92,93.92,0,0,0,18-21c9.24-14.92,14-31.35,9.94-49.1-2-8.73-5.45-17.13-7.34-25.87-4.42-20.37,5.81-38.2,24.84-44.05a10.28,10.28,0,0,1,.1,2c-2.93,17.11,1.94,27.29,16.56,36.59a186,186,0,0,1,21.67,16c22.72,19.69,32,44,23.87,73.75-6.11,22.42-18.35,41.19-34.18,57.84l-4.67,4.92c2.55.22,4,.45,5.38.45,41.82,0,83.65.05,125.47-.09a16.49,16.49,0,0,0,7.91-2.32c16.16-9.58,27.23-23.83,35.47-40.33,17.19-34.45,22.21-70.92,15.93-108.7-7.29-43.91-28.65-79.38-65.8-104.69-3.87-2.64-8.06-4.79-12.85-7.6a14.15,14.15,0,0,0,.57,2.58,111.35,111.35,0,0,1,13.88,67.72c-1.79,17-8.07,31.82-20,44.12-2.58,2.67-5.78,4.76-9.21,7.53,1-9.57,2-18.08,2.66-26.63,1.53-18.69-2.72-35.64-15.42-50-8.82-10-17.61-20-26.25-30.14-8.82-10.35-13.1-22.25-11.52-36,.49-4.35.8-8.73,1.2-13.09l-1.54-1c-5.17,5.5-10.84,10.6-15.4,16.55C1081.7,218.92,1078.09,238.08,1080,258.59Zm-187.6,275h299c1.5,0,3-.12,4.49,0,3.09.28,4.1-1.13,4.06-4.09-.12-7.83-.33-15.68.07-23.5.26-4.95-1.52-6-6.21-6q-148,.19-296,.11c-1.75,0-3.5.18-5.45.28Zm187.2-410.75c.69.64.9,1,1.18,1.07,20.75,7.14,44.44-5.3,50.23-26.38,3-11.08,2.85-22.32,1.58-33.61-.29-2.63-.81-5.24-1.29-7.85s-1.07-5.15-1.61-7.72c-10.15,29.45-24,55.8-50,74.49Z"/><path class="cls-1" d="M371.19,434.64c-5.83,12.37-11.56,23.4-16.3,34.85-7.64,18.4-12.36,37.6-12.6,57.63-.25,21,5.81,40.32,16.19,58.42a173.5,173.5,0,0,0,30.44,38.78c1.29,1.25,2.7,2.36,4.06,3.53l-.39,1.43c-11.2,2-22.33,4.73-33.61,5.64-17.89,1.43-35.9,2.57-53.81,2.13a292.3,292.3,0,0,1-122.61-30Q48.25,541.31,9.61,396.52C-.09,360-2,322.74,1.88,285.08c13.22-130.9,108.88-243.8,241.45-276,33.7-8.24,68-11.16,102.54-7.57,114.35,11.86,198.77,69.06,254.87,169,2.71,4.82,2.14,7.43-1.69,11.21q-80.22,79.2-160.13,158.7l-29.1,28.87c-1.25,1.24-2.43,2.56-3.08,3.24l27.71,20.55,92.24-90,92.66-90.44c2.8,9.72,6.35,20.72,9.11,31.91a306.43,306.43,0,0,1,8,95.13C631.16,414.89,603,480.5,551.76,536,520,570.4,482.22,596.24,439,614.12c-3.46,1.44-5.89,1.36-8.91-1.25-18.49-16-34.61-33.78-43.67-56.88-8.87-22.59-7.08-45.41.31-67.94,2.74-8.33,6.86-16.19,10.14-24.36.54-1.35.65-3.81-.17-4.62C388.76,451.22,380.62,443.62,371.19,434.64ZM357.86,90.9,230.77,223l-37.59-41.32Q106.81,268,21.6,353.23c.84,0,2.42.22,4,.22q190,0,380-.13a13,13,0,0,0,8.15-3.46c25.57-25.1,50.93-50.41,76.34-75.66,6.73-6.69,13.44-13.38,20.57-20.48C459.69,199.44,409,145.44,357.86,90.9Zm40.9,420c-1.65,11.43-2.36,22.61,2,33.5,2.68,6.67,8.14,10.16,14.9,11a42,42,0,0,0,13.83-.42c23.54-4.9,43.44-30,43.54-55.06a115.26,115.26,0,0,0-14.68-56.36c-18-32.78-43.29-57.37-80.1-67.67-21.22-5.94-43.11-6.21-64.84-3-8.42,1.26-16.65,4.24-24.75,7-4.7,1.63-7.41,5.83-7.84,10.77-.79,9.18,1.66,17.55,8,24.39,4,4.35,8.61,6.28,15.15,4.84,14.47-3.17,29.15-4.74,44.08-2.93,27.56,3.33,48.24,17.58,64.41,39.45,6.37,8.62,12.2,17.43,14.67,28.07,3.51,15.07-3.17,24.45-18.52,25.8-3.13.33-6.27.41-9.85.61ZM327,510.3H216.24c-18.58,0-37.85-14.13-43.44-31.82-2.36-7.45-3.9-7.83-9.74-2.38a9.16,9.16,0,0,0-1.73,1.79c-2,3.25-4.67,2.8-6.42.3a63.94,63.94,0,0,1-7.53-13.27c-1.83-4.72-2.39-9.93-3.76-16.08-1.27,2.56-2.17,4.09-2.8,5.71-10.68,27.21-5.52,51.6,13.6,73.16,18.09,20.39,41.46,28.6,68.23,28.46q52.74-.28,105.46-.52a17.49,17.49,0,0,0,2.59-.34c-1.84-7.53-4.5-14.66-5.11-22s.83-14.77,1.44-23Zm-56.6-137.95a25,25,0,0,0-2.61.68q-50.22,23.33-100.43,46.7a6.48,6.48,0,0,0-2.44,1.65c-9.55,12-12.28,31.34.79,45.69,3.59-2.75,5.8-7.82,11.6-7.61,2,11.11,7.65,19,17.76,23.52a9.17,9.17,0,0,0,8.87-.22c27.33-14.14,54.75-28.11,82.13-42.15,1.21-.62,2.3-1.46,3.84-2.44-22-17.44-33.62-37.51-19.49-65.82ZM492.9,351.84l.74,1.17H604l-53.35-56.2Z"/><path class="cls-1" d="M1781.93,500.08q-128.22,0-256.44.1c-4.31,0-6.89-1.18-9.28-4.83-25.46-39-42.72-81.21-49.14-127.41-14.94-107.61,15.65-200.6,92.46-277.38,47-47,104.16-76,170-86,107.55-16.23,201,13.75,278.5,90.22,47.91,47.31,77.12,105.15,87.76,171.78q19.8,124.14-49.25,229.57c-2,3-4,4.06-7.64,4.06Q1910.41,500,1781.93,500.08Zm240-21.44c-1.58-2.65-2.47-4.21-3.43-5.73q-113-180.26-226.14-360.46c-4.52-7.19-8.64-14.12-7.37-23,0-.26-.26-.57-.54-1.11h-9c-.13,2.37.06,4.57-.41,6.62-.86,3.78-1.3,8-3.3,11.11q-116.07,183.06-232.4,366c-1.2,1.89-2.3,3.85-3.94,6.6h6.37c53.32,0,106.64-.08,160,.13,4.68,0,6.19-1.72,7.26-5.81,11-42.12,21.76-84.29,33.23-126.27,11.21-41,23.12-81.82,34.76-122.71a49.12,49.12,0,0,1,2-5.08l1.31.11c2.11,6.77,4.5,13.47,6.3,20.32Q1817.2,356,1847.55,472.7c1.11,4.28,2.43,6.14,7.45,6.12,53.65-.24,107.31-.15,161-.15ZM1779.46,81.36l81-15.62a8.35,8.35,0,0,0-.07-1.32l-80.88-21Z"/><path class="cls-1" d="M2428,500.19h-78.79c-.2-2.24-.51-4.14-.51-6.05V185.66c0-6.48,0-6.51,6.74-6.51q158,0,316-.09c4.91,0,6.42,1.13,6.42,6.34q-.27,154.5-.13,309V500H2599v33.37h78.34c.17,1.91.39,3.33.39,4.76q0,25,.08,50a5.91,5.91,0,0,1-3.37,5.89,319.2,319.2,0,0,1-181.31,43,315,315,0,0,1-141-42.93c-2.67-1.56-3.57-3.43-3.55-6.42.12-16.33.19-32.67,0-49-.06-4.37,1.62-5.18,5.55-5.16,22.83.16,45.67,0,68.5.16,4.1,0,5.55-1.13,5.43-5.33C2427.82,519.21,2428,510.08,2428,500.19Zm225.5-166.53c.19-.43.39-.86.59-1.29L2511.9,191.75,2372.1,332.57l.55,1.15h69.21V553.46h6c44.16,0,88.31-.08,132.46.11,4.93,0,6-1.54,6-6.21q-.22-103.71-.1-207.43v-6.27Z"/><path class="cls-1" d="M2677.36,145.16h-5.59q-158.46,0-316.91.1c-4.66,0-6.31-1-6.27-6,.22-29.49.16-59,0-88.47,0-3.58,1-5.71,4.23-7.56,38.09-21.94,78.84-35.81,122.57-40.82,62.07-7.1,121.3,2.62,177.54,29.91,7.48,3.63,14.73,7.74,21.91,11.92a6.32,6.32,0,0,1,2.72,4.53c.15,31.16.11,62.31.09,93.47A21.88,21.88,0,0,1,2677.36,145.16ZM2529.87,84.87l-1.07.38c-.83-1.18-1.69-2.33-2.49-3.52-9.08-13.36-18.09-26.77-27.3-40-1.19-1.72-3.34-3.74-5.17-3.86a174.74,174.74,0,0,0-20.47,0c-1.23.06-3.36,2.25-3.37,3.47-.19,27.65-.12,55.31-.2,83,0,3.25,1.59,3.94,4.33,3.91,6.16-.07,12.33-.15,18.49,0,3.63.1,4.47-1.56,4.43-4.85-.13-12.33-.06-24.66,0-37,0-1.57.16-3.15.31-6.07,1.85,2.64,3,4.21,4.07,5.8,8.71,12.81,17.39,25.63,26.17,38.39,1,1.4,2.51,3.35,3.85,3.41,8.11.31,16.23.15,24.4.15v-90h-25.94Z"/><path class="cls-1" d="M1545.66,533.81h470.43c-50,53.45-109.84,87-181,99.15C1716.44,653.14,1610.86,606.23,1545.66,533.81Z"/><path class="cls-1" d="M2314.84,500.08h-27.57c-10.33,0-20.67-.22-31,.11-4.06.13-6.25-1.39-8.38-4.62-25.12-38.19-41.78-79.68-49-124.88q-15.42-97,25.3-186.5c1.65-3.62,3.59-5.19,7.78-5.16q38.47.3,77,0c4.46,0,6,1.13,6,5.84q-.2,155-.1,309.9Z"/><path class="cls-1" d="M2756.12,179.15c12.66,0,25.33.14,38-.07,4-.07,6.2,1.07,8,4.93,14.69,32.17,24.26,65.69,27.8,100.93q11.52,114.54-51.47,210.87c-2,3.13-4.13,4.45-8,4.4-17.65-.24-35.32-.29-53,0-4.73.08-5.84-1.41-5.83-5.88q.18-78.22.08-156.44V185.94c0-6.78,0-6.79,6.94-6.8Z"/><path class="cls-1" d="M2314.55,144.91h-68.33a319.36,319.36,0,0,1,68.33-75.25Z"/><path class="cls-1" d="M2780.4,145.16c-22.45,0-43.77,0-65.09-.13-1.2,0-3.4-1.82-3.41-2.8-.12-23.48,0-47,.08-70.46,0-.24.37-.49,1-1.22A318.34,318.34,0,0,1,2780.4,145.16Z"/><path class="cls-1" d="M2314.52,534.08v33.7c-13.33-10-24.78-21.29-36.37-33.75Z"/><path class="cls-1" d="M2749,534.28l-36.27,34a18,18,0,0,1-1-3.58c0-9,0-18-.06-27,0-2.79.67-4.25,3.91-4.19,10.14.16,20.29,0,30.43.07A23.59,23.59,0,0,1,2749,534.28Z"/></g></g></g></svg>